<!--?xml version="1.0" standalone="no"?-->
<svg id="sw-js-blob-svg" viewBox="0 0 100 100" xmlns="http://www.w3.org/2000/svg">
    <defs>
        <linearGradient id="sw-gradient" x1="0" x2="1" y1="1" y2="0">
            <stop id="stop1" stop-color="rgba(69.129, 34.925, 18.736, 1)" offset="0%"></stop>
            <stop id="stop2" stop-color="rgba(251, 168, 31, 1)" offset="100%"></stop>
        </linearGradient>
    </defs>
    <path fill="url(#sw-gradient)"
        d="M26.7,-36.7C34.4,-31.2,40.2,-23.1,41.6,-14.5C43.1,-6,40.1,3.1,37.1,12C34.1,20.9,31.1,29.8,24.9,35.4C18.7,41,9.4,43.3,0.5,42.7C-8.4,42,-16.7,38.3,-23.2,32.7C-29.6,27.2,-34.2,19.9,-37.5,11.7C-40.9,3.5,-43.1,-5.6,-40.8,-13.4C-38.5,-21.3,-31.7,-27.8,-24.2,-33.4C-16.7,-38.9,-8.3,-43.4,0.6,-44.2C9.5,-45,19,-42.2,26.7,-36.7Z"
        width="100%" height="100%" transform="translate(50 50)" stroke-width="0"
        style="transition: 0.3s;" stroke="url(#sw-gradient)"></path>
</svg>